<svg xmlns="http://www.w3.org/2000/svg" viewBox="0 0 24 24" width="24" height="24"><path d="M9 11.5c-.3 0-.5-.2-.5-.5s.2-.5.5-.5.5.2.5.5-.2.5-.5.5zm6 0c-.3 0-.5-.2-.5-.5s.2-.5.5-.5.5.2.5.5-.2.5-.5.5zM8.6 7C4.4 7 1 9.7 1 13.1c0 1.9 1.1 3.6 2.9 4.7L3 20l2.5-1.3c.7.2 1.5.3 2.3.4-.1-.4-.2-.9-.2-1.4 0-3.3 3.2-6 7.2-6 .4 0 .8 0 1.2.1C15.5 8.9 12.4 7 8.6 7z" fill="#07C160"/><path d="M22.5 17c0-2.7-2.9-5-6.5-5s-6.5 2.2-6.5 5 2.9 5 6.5 5c.7 0 1.4-.1 2-.3l1.9 1 -.5-1.7c1.8-.9 3.1-2.4 3.1-4zm-8.7-1c-.2 0-.4-.2-.4-.4s.2-.4.4-.4.4.2.4.4-.2.4-.4.4zm4.5 0c-.2 0-.4-.2-.4-.4s.2-.4.4-.4.4.2.4.4-.2.4-.4.4z" fill="#07C160"/></svg>