<svg xmlns="http://www.w3.org/2000/svg" viewBox="0 0 24 24" width="24" height="24"><path d="M5 4h14a2 2 0 0 1 2 2v12a2 2 0 0 1-2 2H5a2 2 0 0 1-2-2V6a2 2 0 0 1 2-2z" fill="#1677FF"/><path d="M7.6 13.2c0-2 1.7-3 3.6-3 1.1 0 2 .3 2.6.7l-.5 1.4c-.5-.3-1.2-.5-1.9-.5-1 0-1.7.4-1.7 1.3 0 .8.7 1.2 1.7 1.2 1.1 0 2-.5 2.6-.9l.5 1.4c-.6.5-1.6 1-3 1-2 0-3.9-1-3.9-3.6zm9.7 0c0-2 1.7-3 3.6-3 1.1 0 2 .3 2.6.7l-.5 1.4c-.5-.3-1.2-.5-1.9-.5-1 0-1.7.4-1.7 1.3 0 .8.7 1.2 1.7 1.2 1.1 0 2-.5 2.6-.9l.5 1.4c-.6.5-1.6 1-3 1-2 0-3.9-1-3.9-3.6z" fill="#fff"/></svg>